<mxfile type="device" compressed="false">
    <diagram id="Network Topology" name="Network Topology">
      <mxGraphModel dx="1360" dy="864" grid="1" gridSize="10" guides="1" tooltips="1" connect="1" arrows="1" fold="1" page="1" pageScale="1" pageWidth="827" pageHeight="1169" math="0" shadow="1">
        <root>
          <mxCell id="0" />   
          <mxCell id="1" parent="0" />
        <object id="obsd1" label="obsd1">
      <mxCell style="shape=image;imageAlign=center;imageVerticalAlign=middle;labelPosition=left;align=right;verticalLabelPosition=top;spacingLeft=0;verticalAlign=bottom;spacingTop=0;spacing=0;image=data:image/png,iVBORw0KGgoAAAANSUhEUgAAAFgAAABYCAYAAABxlTA0AAAAAXNSR0IArs4c6QAAAARnQU1BAACxjwv8YQUAAAAJcEhZcwAAFxEAABcRAcom8z8AAAikSURBVHhe7ZwJbBRVGMe3pUBrASkUlVMpV6EUQSlCCqhEjbYiIQEUETFyVEAr3hDwquCFVE2EYoTWCBTk8KgmiBfGqDEoRbkE5JByWW9UtJTC5/d/MwPD8na7OzOvu4vvS35pd3bezPS337735r039flSskijiKZZf2nBKtGCFaMFK0YLVowWrBgtWDFasGK0YMVowYrRghUTlYIbX8IX1lv+XqwRVYKb9SFfYiYlpPYlX1IP+T6xRtQIhlxfF2rf4wbasHE7jc57lF+nyfeVgYyPS+cyncWHJI4n26+uiQrBpty0jFzavfcAIU6cOEE33jY1NMnnXkoJLfrSkFH308hx0ykzeyT5knvK961rIi7YytxuOSz3oJBrxQlm+JiHapfcqCc1aXcFVR2tFuUK5y7hMh3l+9Y1ERV8WuaeLtcKSB5Rm2QW3Ljt5VT582+izKw5xbx/J/m+dU3EBFtyOXP3VBwSYhBHzSw8Wm38tCKoZC3YjwDVwosvv04LFr0tft+6fQ/d9eBs8TsCdXLA6kILtgG5cWa1UHFK7qLlq1lKGyoqXiVe7913iHz1utJtEx8TrxGoLqQNnxZsg7tQPfuNoH0HK4UMxOIV75GvQQZLuYhKSt8V2yr2/0gNL8jmbe1ofP5Msc2K2yc/Tr6G3U8dUwu2kdCVcoffLUQgFiNzIfeci1lKOhUveUdsh+DElv2N7hZnrF3yHPQSErrxxZt3e1qwDVH/duL+6gx6lbPVl8RiIdesl88Q3KiXIdLXge6Z/jy9ULRUVB3o+548phYsoSHfbTXgrznGHSAX2wIJxnuQjP2R7Xa5QAuW0BT4DegEEyzK8P7+ZYAWHCK1CQ6EFhwiWrBiIi0YjafV4Mred4IWbMLnzhkxhdp1v150JT2T/L8XzI1mHN/8jJ1cIMpu2rqTUtsMNLLZC8laMAvmu8LSVe+LsojyjdupuVeSdRXBNO5F8Uk9xC27FetZsshkt9WFFsxAIBo3vomxSy7fZEp2k8lasEkzBrftfLfon8muqgvHgnGyZL4gliImGj3h/JPDlW4Ez5hZxMdK9Tt2qFzItKEX5y+j48ePi+OJ6qKtQ8mOBfMnnX3tOCopfYezrswTFrLcHbsqxB/lRvD6b7fR3KKl4sMKm5I36CUuO2/hSvrn3ypxPAQavgsuGmRUJbJrCIRjwb6ONPn+Z8zTex8/saxwBDdhwX/+fcQsrSY+W7eREs7pceZgUzAcC45Pp+FjptL+A5Ui27xkHx/zy683GQPu3MJLz2+H90luPZDLbKadu/fR9/wtcAyX37FzL33DDVx19TFTLdERzubcYfkUl5QJafLrkOFYMPcf66VeRkmt+otM85IkRsiVnTcI9VL7ivURWBnkCC5bD3UsN5AYe64+Zgg+8k8VDcrN4+0dpOcNimPB4NzexldYBRgnlp0zGE24DMo5AWXF7MmFNOm+p4VYBORemTPemVzgSvDZBOpVXxrlP/ScqZZEIzcod4JzuUCJ4EAD49EKrpUl2uUa1YJLucBzwWgAMOPrPx0UrWAsIjGTpj8xz1RrNGhX5nggF3gqWGRCGk3i7hsWkPgSuUuDuk22b7RgCn7ltbeEXKNaMBs03N3JyoSDZ4JNuWPueFRcKGLB4jKKwyQl3pOViRaQBPytw6LBwSPv9SZzLTwRbModnfewqdaIcXcWGNVFOP3GSIBMbcKNHG6Fcb1eVmuuBZtyb817xNRqRMhre6MJFd80V4ItubZqARGTclXhWLAkc7H0dOjN9/H2tkanvZEb+GZDdt5giJsU2bE8wGl2OxJsyrU3aFVV1TQ2f6aYfsHIlluSMQYrO3cA4rgebcRlZMfyAtxKO5IctmA+CaZX8qbMMtUagYGRXXv2U+VPv4phQ7fgQRgxHhFKJnOGQe6Wbbulx/KCy9F1QyMoO38wwhbMNw+JKb1py/Y9plo1gQ8KAz+hCkaW/XH4L7O09zH4JnTfusjPHwxHVQRncOsOV9Fmzhgr0EF/oaiUZheWUCH/LJzngMJXafN3u8TxMGwZrmBkGgID7oW4Dtk5HNIla5izZ/ccCUY/MT6dWrYfRJtMIZhewSyAaOAEnZiOYdKC5hW7nzKaNaeEj9Xc79guQUPnpH/sSDAwJWMaxZKMWFH2EdfRmcanHe4FeTTpiYwLe9JTFY4FA0syZ7K9ulhZ9rEx8h+uZC1YgpDcVZrJDTDdE8qUj4UWHAB7dbHtlOQlK9dQXH3bsxS1oQUHwZSMhg9T7zU1x+n6YfnGg9my/WVowbUAydwZb99ziFgzIRZy6DrYQ8EAQtG41c8ITy7QghWjBStGC1ZMqIIxxW7vmYQi2L9MXRFTglGn4zWWmWJC1RIWTDDKYGwahNOj8YqYEoyV6Cxq+Zsf0LSCubx/B3N1UQDBkNsgg5LP60erP/yCRk14mLeH2bNxS8wIxjh0w+60jOVacecDz3KZNLGk9EzBLBJyWebaz9aL7Yhrhk42HiT3P7cqYkkw1i9MvOcp8b4VhuR2lNx6wEnBz+OBcV9rSm7ehz75vFxsQ2CNb1rX68Jf4+uGmKoiMP3vNw+ImDBllni4/FDlL+J1wewFFJ/YidZ+fipz123YSs1a8fGQvbqKCCAYoGFjybdwfWqPaQUv0e4fjH8JNr9kFa0oWyt+R6wr30opLbPrXi6IOcHAlDzaT3JNTY34if/vY8VXG76LnFwQrYKxyj2gYBBAsj2MzI1AtWAnugR3ptJVa4ScX38/HFwwsKqL8WdKRp0b0cy1iCrBLDOj3410NXelBuSMp/jmlxkSZftamJLtDd+68i2UEokGTUZUCYYM3G3FpxtyQl00aEqeMOVJ+vSLDZSCRSvRIBdElWA3QDKGSTHm4GTCVRVnjWAAyViGKnsvUpxVgqMRLVgxWrBitGDFaMGK0YIVowUrRgtWjBasGC1YMU2zjviEZY0isn78D43o8OjRWGtOAAAAAElFTkSuQmCC;" vertex="1" parent="1">
          <mxGeometry x="100" y="100" width="75" height="75" as="geometry" />
      </mxCell>
    </object><object id="client1" label="client1">
      <mxCell style="shape=image;imageAlign=center;imageVerticalAlign=middle;labelPosition=left;align=right;verticalLabelPosition=top;spacingLeft=0;verticalAlign=bottom;spacingTop=0;spacing=0;image=data:image/png,iVBORw0KGgoAAAANSUhEUgAAAFkAAABZCAMAAABi1XidAAAAAXNSR0IArs4c6QAAAARnQU1BAACxjwv8YQUAAAHCUExURQAQNgARNgARNQAAHAAAHQAAIQAAIwAAJAAAJQAAJgAAJwABJgABJwACKAADKQAEKgAFKwAGLAAHLAAHLQAILAAILQAILgAJLgAKLwALMAAMMAAMMQANMQANMgAOMgAOMwAPMwAPNAAQNAARNQASNQASNgILLwQOMgUWOQgTNwgYOwkVOQkZPAwcPgwcPw0dPw4eQA8aPA8cPg8fQRwrSx0sTB4pSR4tTCEwTyMyUSMzUiQzUiU0UyY1Uyk0Uis5Vy07WTA7WDA+XDRBXjU/XDdGYT1LZkBJZUBKZUNPaUdSbEdUbklSbEtXcExWb05ac1NedlVgeFljel5pgF9mfl9qgWBrgmZwhmxziHF6jnJ8kHN8kHR9kXV+knV/knZ/k3eAlHh/kniBlHiClHl/knuAk4CJmoaNnoePoImRoYuTo5GZqJSaqZacq5eerJeerZicq5ierZmdrJqfrpqhr6OntKmsua+1wLC0wLW6xL7BysLFztHU2tHU29TX3d/h5t/i5uLl6Obo6+fo7Ofp7Ojp7Orr7urs7+zt8PHy9PT19/X29/b29/b2+Pb3+Pf4+fj5+vn6+vv8/P3+/v7+/v////GBh4cAAAADdFJOU+jz9a/B8SsAAAAJcEhZcwAAFxEAABcRAcom8z8AAAImSURBVGhD7dj3UxNBFMDxRMDLYnJJFIgRiHBrLNiw994LKjYExV6x9441YgFr3v/rJfcu827XC7O5yy/Ofn/Km8x95mazk7m9CK9TUS2TtEzTMk3LtP9EtrIZ9bIWXl1JlhOpFatWKtebNPF6N1HONR98/mli/Jta4xOFZ3tYFxpOgtxtXoNauxD3rIggswGAn48vD59Ta/jKkz8A/dNQKeeVs8s/w9jOJiOmmtG09wu8XdCJTimvHD8MMNCIg1qNFwF201/RKxtDUNyQxkGuIyPtrUrJ7QAnGA6lBPmMLc/AQSyfmb8mMxsHqfQWgJNV5NNQ3Ognz1z96sftuX53nd5a/Z6rycYle2ut9/s2iGzuB3izrB0nsSAyb+s7v7Z1Dg5igWRuxtry+FEqmFwtLdO0TNMyTcs0LdO0TNMyTcs0LdMmk+1n/nU1ypM88w9CcVMKB7XMHQDH/OXEAYCzDf7HHP+6Gq4D7EriVMordyx8B18PMYMpFjPiR3/B6Dx6PvLKnB2xzyIv7t29r9adBy/t6/YlUCknyJyd+l06Q9fQ9+N0lWXZYtsejn4ofFSr8P71rc1eWJI5TzVbS5aqtribpYUjjCxznpulXLt8tv2XHE71l/MpfFMRvOnOgrtya//IjXAa6Wspi65sPMVtGbxHU8uiK8dvjoXVVed1kitbi3rDqsf5R3Nl3pkNq5wDVuTQ0zJNyzQt07RMq588JRKtT9HIXyTFPzou9sSWAAAAAElFTkSuQmCC;" vertex="1" parent="1">
          <mxGeometry x="0.0" y="300" width="75" height="75" as="geometry" />
      </mxCell>
    </object><object id="client2" label="client2">
      <mxCell style="shape=image;imageAlign=center;imageVerticalAlign=middle;labelPosition=left;align=right;verticalLabelPosition=top;spacingLeft=0;verticalAlign=bottom;spacingTop=0;spacing=0;image=data:image/png,iVBORw0KGgoAAAANSUhEUgAAAFkAAABZCAMAAABi1XidAAAAAXNSR0IArs4c6QAAAARnQU1BAACxjwv8YQUAAAHCUExURQAQNgARNgARNQAAHAAAHQAAIQAAIwAAJAAAJQAAJgAAJwABJgABJwACKAADKQAEKgAFKwAGLAAHLAAHLQAILAAILQAILgAJLgAKLwALMAAMMAAMMQANMQANMgAOMgAOMwAPMwAPNAAQNAARNQASNQASNgILLwQOMgUWOQgTNwgYOwkVOQkZPAwcPgwcPw0dPw4eQA8aPA8cPg8fQRwrSx0sTB4pSR4tTCEwTyMyUSMzUiQzUiU0UyY1Uyk0Uis5Vy07WTA7WDA+XDRBXjU/XDdGYT1LZkBJZUBKZUNPaUdSbEdUbklSbEtXcExWb05ac1NedlVgeFljel5pgF9mfl9qgWBrgmZwhmxziHF6jnJ8kHN8kHR9kXV+knV/knZ/k3eAlHh/kniBlHiClHl/knuAk4CJmoaNnoePoImRoYuTo5GZqJSaqZacq5eerJeerZicq5ierZmdrJqfrpqhr6OntKmsua+1wLC0wLW6xL7BysLFztHU2tHU29TX3d/h5t/i5uLl6Obo6+fo7Ofp7Ojp7Orr7urs7+zt8PHy9PT19/X29/b29/b2+Pb3+Pf4+fj5+vn6+vv8/P3+/v7+/v////GBh4cAAAADdFJOU+jz9a/B8SsAAAAJcEhZcwAAFxEAABcRAcom8z8AAAImSURBVGhD7dj3UxNBFMDxRMDLYnJJFIgRiHBrLNiw994LKjYExV6x9441YgFr3v/rJfcu827XC7O5yy/Ofn/Km8x95mazk7m9CK9TUS2TtEzTMk3LtP9EtrIZ9bIWXl1JlhOpFatWKtebNPF6N1HONR98/mli/Jta4xOFZ3tYFxpOgtxtXoNauxD3rIggswGAn48vD59Ta/jKkz8A/dNQKeeVs8s/w9jOJiOmmtG09wu8XdCJTimvHD8MMNCIg1qNFwF201/RKxtDUNyQxkGuIyPtrUrJ7QAnGA6lBPmMLc/AQSyfmb8mMxsHqfQWgJNV5NNQ3Ognz1z96sftuX53nd5a/Z6rycYle2ut9/s2iGzuB3izrB0nsSAyb+s7v7Z1Dg5igWRuxtry+FEqmFwtLdO0TNMyTcs0LdO0TNMyTcs0LdMmk+1n/nU1ypM88w9CcVMKB7XMHQDH/OXEAYCzDf7HHP+6Gq4D7EriVMordyx8B18PMYMpFjPiR3/B6Dx6PvLKnB2xzyIv7t29r9adBy/t6/YlUCknyJyd+l06Q9fQ9+N0lWXZYtsejn4ofFSr8P71rc1eWJI5TzVbS5aqtribpYUjjCxznpulXLt8tv2XHE71l/MpfFMRvOnOgrtya//IjXAa6Wspi65sPMVtGbxHU8uiK8dvjoXVVed1kitbi3rDqsf5R3Nl3pkNq5wDVuTQ0zJNyzQt07RMq588JRKtT9HIXyTFPzou9sSWAAAAAElFTkSuQmCC;" vertex="1" parent="1">
          <mxGeometry x="200.0" y="300" width="75" height="75" as="geometry" />
      </mxCell>
    </object><mxCell id="4d46b08e953164765962445cd1207c83-src" value="eth1" style="labelBackgroundColor=#ffffff;;" vertex="1" connectable="0" parent="4d46b08e953164765962445cd1207c83">
      <mxGeometry x="-0.5" relative="1" as="geometry">
        <mxPoint as="offset" />
      </mxGeometry>
    </mxCell><mxCell id="4d46b08e953164765962445cd1207c83-trgt" value="eth1" style="labelBackgroundColor=#ffffff;;" vertex="1" connectable="0" parent="4d46b08e953164765962445cd1207c83">
      <mxGeometry x="0.5" relative="-1" as="geometry">
        <mxPoint as="offset" />
      </mxGeometry>
    </mxCell><object id="4d46b08e953164765962445cd1207c83" label="" src_label="eth1" trgt_label="eth1" source="obsd1" target="client1">
      <mxCell style="endArrow=none;jumpStyle=gap;entryY=0;exitY=1;entryX=0.5;exitX=0.5;" edge="1" parent="1" source="obsd1" target="client1">
          <mxGeometry relative="1" as="geometry" />
      </mxCell>
    </object><mxCell id="40809af879116c3ea5fca1727e085e95-src" value="eth2" style="labelBackgroundColor=#ffffff;;" vertex="1" connectable="0" parent="40809af879116c3ea5fca1727e085e95">
      <mxGeometry x="-0.5" relative="1" as="geometry">
        <mxPoint as="offset" />
      </mxGeometry>
    </mxCell><mxCell id="40809af879116c3ea5fca1727e085e95-trgt" value="eth1" style="labelBackgroundColor=#ffffff;;" vertex="1" connectable="0" parent="40809af879116c3ea5fca1727e085e95">
      <mxGeometry x="0.5" relative="-1" as="geometry">
        <mxPoint as="offset" />
      </mxGeometry>
    </mxCell><object id="40809af879116c3ea5fca1727e085e95" label="" src_label="eth2" trgt_label="eth1" source="obsd1" target="client2">
      <mxCell style="endArrow=none;jumpStyle=gap;entryY=0;exitY=1;entryX=0.5;exitX=0.5;" edge="1" parent="1" source="obsd1" target="client2">
          <mxGeometry relative="1" as="geometry" />
      </mxCell>
    </object></root>
      </mxGraphModel>
    </diagram></mxfile>